<svg width="170" height="170" viewBox="0 0 170 170" fill="none" xmlns="http://www.w3.org/2000/svg">
<path fill-rule="evenodd" clip-rule="evenodd" d="M38.5293 58.7933C36.6 58.56 34.8213 58.396 33.2799 58.3253C10.9813 57.4147 12.1253 68.4867 21.4106 84.8347C23.8666 89.148 36.8213 109.517 41.7079 108.991C44.3639 108.712 44.7039 93.5933 44.6333 91.7227C44.2693 80.9293 42.096 69.7493 38.5293 58.7933ZM160 165.589C168.911 159.416 162.036 152.4 155.652 146.972C138.577 132.358 103.028 116.301 82.7733 104.253C75.8999 100.151 50.5279 84.9973 61.6933 75.224C66.3813 71.1427 74.8466 71.5267 82.0639 71.736C72.3466 66.604 56.7933 62.02 44.7039 59.7987C48.7826 70.0893 51.6146 80.7187 52.8306 91.056C53.8226 99.5427 54.1986 118.733 41.1719 118.197C27.9479 117.565 9.27327 84.9267 6.73594 73.3293C2.23327 52.772 19.2226 48.552 35.0693 49.3093C28.1453 32.1787 17.9973 16.208 6.10528 4.00003C19.7973 15.9267 31.8159 32.1213 40.3053 49.7307C41.7466 49.8973 43.1479 50.0693 44.5039 50.2933C54.8879 51.9987 96.3373 62.6413 97.3013 74.0893C97.9173 81.3573 89.1639 81.112 80.7199 80.8653C76.0426 80.7293 71.4586 80.5933 68.6159 81.7347C71.6439 86.156 83.5466 94.12 87.5479 96.9493C107.217 111.001 138.04 127.515 155.115 143.604C161.425 149.732 170.827 159.367 160 165.589Z" fill="#4AC5FF"/>
<mask id="mask0_119_2" style="mask-type:luminance" maskUnits="userSpaceOnUse" x="38" y="58" width="9" height="9">
<path d="M40.6906 66.1013L38.5293 58.7933C39.32 61.2213 40.0413 63.6587 40.6906 66.1013ZM46.5493 64.7187C46.5146 64.62 46.4786 64.52 46.444 64.4213C46.4826 64.5293 46.5173 64.6293 46.5493 64.7187Z" fill="white"/>
</mask>
<g mask="url(#mask0_119_2)">
<path d="M40.6906 66.1013L38.5293 58.7933C39.32 61.2213 40.0413 63.6587 40.6906 66.1013ZM46.5493 64.7187C46.5146 64.62 46.4786 64.52 46.444 64.4213C46.4826 64.5293 46.5173 64.6293 46.5493 64.7187Z" fill="url(#paint0_linear_119_2)"/>
</g>
<mask id="mask1_119_2" style="mask-type:luminance" maskUnits="userSpaceOnUse" x="38" y="58" width="9" height="9">
<path d="M40.6933 66.1107L40.6906 66.1013C40.0413 63.6586 39.32 61.2213 38.5293 58.7933C38.5293 58.7933 42.832 59.1293 44.704 59.7987C44.704 59.7987 45.9066 62.928 46.444 64.4213C46.4786 64.52 46.5146 64.62 46.5493 64.7186C46.552 64.7266 46.5546 64.736 46.5586 64.744C47.0106 66.0453 40.6933 66.1107 40.6933 66.1107Z" fill="white"/>
</mask>
<g mask="url(#mask1_119_2)">
<path d="M40.6933 66.1107L40.6906 66.1013C40.0413 63.6586 39.32 61.2213 38.5293 58.7933C38.5293 58.7933 42.832 59.1293 44.704 59.7987C44.704 59.7987 45.9066 62.928 46.444 64.4213C46.4786 64.52 46.5146 64.62 46.5493 64.7186C46.552 64.7266 46.5546 64.736 46.5586 64.744C47.0106 66.0453 40.6933 66.1107 40.6933 66.1107Z" fill="url(#paint1_linear_119_2)"/>
</g>
<mask id="mask2_119_2" style="mask-type:luminance" maskUnits="userSpaceOnUse" x="34" y="45" width="5" height="5">
<path d="M35.0693 49.3093L34.46 47.824C34.6653 48.3173 34.8693 48.8133 35.0693 49.3093ZM38.1053 45.348C38.104 45.3467 38.1026 45.3427 38.1013 45.34C38.1013 45.34 38.1026 45.3427 38.1053 45.348Z" fill="white"/>
</mask>
<g mask="url(#mask2_119_2)">
<path d="M35.0693 49.3093L34.46 47.824C34.6653 48.3173 34.8693 48.8133 35.0693 49.3093ZM38.1053 45.348C38.104 45.3467 38.1026 45.3427 38.1013 45.34C38.1013 45.34 38.1026 45.3427 38.1053 45.348Z" fill="url(#paint2_linear_119_2)"/>
</g>
<mask id="mask3_119_2" style="mask-type:luminance" maskUnits="userSpaceOnUse" x="33" y="45" width="8" height="5">
<path d="M40.3054 49.7307C40.3054 49.7307 36.3321 49.3586 35.0694 49.3093C34.8694 48.8133 34.6654 48.3173 34.4601 47.824L33.5441 45.592L38.1014 45.34C38.1027 45.3426 38.1041 45.3467 38.1054 45.348C38.2027 45.5467 40.1841 49.54 40.3054 49.7307ZM33.5107 45.5946V45.5093L33.5441 45.592L33.5107 45.5946Z" fill="white"/>
</mask>
<g mask="url(#mask3_119_2)">
<path d="M40.3054 49.7307C40.3054 49.7307 36.3321 49.3586 35.0694 49.3093C34.8694 48.8133 34.6654 48.3173 34.4601 47.824L33.5441 45.592L38.1014 45.34C38.1027 45.3426 38.1041 45.3467 38.1054 45.348C38.2027 45.5467 40.1841 49.54 40.3054 49.7307ZM33.5107 45.5946V45.5093L33.5441 45.592L33.5107 45.5946Z" fill="url(#paint3_linear_119_2)"/>
</g>
<mask id="mask4_119_2" style="mask-type:luminance" maskUnits="userSpaceOnUse" x="33" y="81" width="20" height="29">
<path d="M41.4705 109C39.4838 108.952 36.3318 105.863 33.0918 101.873C33.0865 101.868 33.0825 101.861 33.0771 101.855C36.3225 105.853 39.4811 108.952 41.4705 109ZM44.6331 91.7227C44.5211 88.4013 44.2185 85.0427 43.7758 81.668C43.7825 81.6693 43.7891 81.6707 43.7958 81.672C44.2385 85.0467 44.5211 88.4027 44.6331 91.7227ZM52.8411 91.148C52.8411 91.1467 52.8411 91.1467 52.8411 91.1454C52.8411 91.1454 52.8411 91.1467 52.8411 91.148ZM52.8371 91.116C52.8371 91.1134 52.8358 91.1107 52.8358 91.1067C52.8358 91.1093 52.8371 91.1134 52.8371 91.116Z" fill="white"/>
</mask>
<g mask="url(#mask4_119_2)">
<path d="M41.4705 109C39.4838 108.952 36.3318 105.863 33.0918 101.873C33.0865 101.868 33.0825 101.861 33.0771 101.855C36.3225 105.853 39.4811 108.952 41.4705 109ZM44.6331 91.7227C44.5211 88.4013 44.2185 85.0427 43.7758 81.668C43.7825 81.6693 43.7891 81.6707 43.7958 81.672C44.2385 85.0467 44.5211 88.4027 44.6331 91.7227ZM52.8411 91.148C52.8411 91.1467 52.8411 91.1467 52.8411 91.1454C52.8411 91.1454 52.8411 91.1467 52.8411 91.148ZM52.8371 91.116C52.8371 91.1134 52.8358 91.1107 52.8358 91.1067C52.8358 91.1093 52.8371 91.1134 52.8371 91.116Z" fill="url(#paint4_linear_119_2)"/>
</g>
<mask id="mask5_119_2" style="mask-type:luminance" maskUnits="userSpaceOnUse" x="33" y="81" width="21" height="34">
<path d="M49.0438 114.9C42.8731 113.311 37.2611 107.491 33.0918 101.873C36.3318 105.863 39.4838 108.952 41.4705 109H41.4718C41.4758 109.001 41.4785 109.001 41.4825 109.001C41.4905 109.001 41.4985 109.001 41.5065 109.001C41.5105 109.001 41.5145 109.001 41.5185 109.001C41.5785 109.001 41.6385 108.999 41.6971 108.992C41.7011 108.992 41.7051 108.992 41.7078 108.991C44.1665 108.733 44.6411 95.756 44.6411 92.3467C44.6411 92.0734 44.6385 91.8613 44.6331 91.7227C44.5211 88.4027 44.2385 85.0467 43.7958 81.672C46.4478 82.1573 49.5265 82.7413 51.6025 83.1733C52.1025 85.7667 52.5091 88.3533 52.8145 90.9213C52.8145 90.9253 52.8158 90.9294 52.8158 90.9334C52.8171 90.9414 52.8171 90.9493 52.8185 90.9573C52.8225 90.9893 52.8265 91.0227 52.8305 91.056C52.8305 91.06 52.8305 91.064 52.8318 91.068C52.8318 91.072 52.8318 91.0747 52.8331 91.0787C52.8331 91.08 52.8331 91.0827 52.8331 91.0853C52.8345 91.0893 52.8345 91.0934 52.8345 91.0974C52.8358 91.1 52.8358 91.104 52.8358 91.1067C52.8358 91.1107 52.8371 91.1134 52.8371 91.116C52.8371 91.1174 52.8371 91.12 52.8371 91.1213C52.8385 91.124 52.8385 91.1267 52.8385 91.1294C52.8398 91.1347 52.8398 91.14 52.8411 91.1454C52.8411 91.1467 52.8411 91.1467 52.8411 91.148C52.8411 91.1534 52.8425 91.1587 52.8425 91.164V91.1654C53.5585 97.3894 53.9145 109.167 49.0438 114.9Z" fill="white"/>
</mask>
<g mask="url(#mask5_119_2)">
<path d="M49.0438 114.9C42.8731 113.311 37.2611 107.491 33.0918 101.873C36.3318 105.863 39.4838 108.952 41.4705 109H41.4718C41.4758 109.001 41.4785 109.001 41.4825 109.001C41.4905 109.001 41.4985 109.001 41.5065 109.001C41.5105 109.001 41.5145 109.001 41.5185 109.001C41.5785 109.001 41.6385 108.999 41.6971 108.992C41.7011 108.992 41.7051 108.992 41.7078 108.991C44.1665 108.733 44.6411 95.756 44.6411 92.3467C44.6411 92.0734 44.6385 91.8613 44.6331 91.7227C44.5211 88.4027 44.2385 85.0467 43.7958 81.672C46.4478 82.1573 49.5265 82.7413 51.6025 83.1733C52.1025 85.7667 52.5091 88.3533 52.8145 90.9213C52.8145 90.9253 52.8158 90.9294 52.8158 90.9334C52.8171 90.9414 52.8171 90.9493 52.8185 90.9573C52.8225 90.9893 52.8265 91.0227 52.8305 91.056C52.8305 91.06 52.8305 91.064 52.8318 91.068C52.8318 91.072 52.8318 91.0747 52.8331 91.0787C52.8331 91.08 52.8331 91.0827 52.8331 91.0853C52.8345 91.0893 52.8345 91.0934 52.8345 91.0974C52.8358 91.1 52.8358 91.104 52.8358 91.1067C52.8358 91.1107 52.8371 91.1134 52.8371 91.116C52.8371 91.1174 52.8371 91.12 52.8371 91.1213C52.8385 91.124 52.8385 91.1267 52.8385 91.1294C52.8398 91.1347 52.8398 91.14 52.8411 91.1454C52.8411 91.1467 52.8411 91.1467 52.8411 91.148C52.8411 91.1534 52.8425 91.1587 52.8425 91.164V91.1654C53.5585 97.3894 53.9145 109.167 49.0438 114.9Z" fill="url(#paint5_linear_119_2)"/>
</g>
<mask id="mask6_119_2" style="mask-type:luminance" maskUnits="userSpaceOnUse" x="61" y="71" width="22" height="11">
<path d="M69.2001 81.5333L69.1908 81.528C71.0548 80.9307 73.5214 80.776 76.2241 80.776C77.5574 80.776 78.9468 80.8146 80.3494 80.8546C78.9628 80.816 77.5894 80.7787 76.2694 80.7787C73.5534 80.7787 71.0721 80.9333 69.2001 81.5333ZM61.6788 75.2373C61.6841 75.232 61.6881 75.228 61.6934 75.224C61.6894 75.228 61.6828 75.232 61.6788 75.2373ZM82.0641 71.736C81.9201 71.66 81.7628 71.5867 81.6161 71.5093C81.6374 71.5187 81.6574 71.5266 81.6774 71.5346C81.8068 71.6013 81.9361 71.6693 82.0641 71.736Z" fill="white"/>
</mask>
<g mask="url(#mask6_119_2)">
<path d="M69.2001 81.5333L69.1908 81.528C71.0548 80.9307 73.5214 80.776 76.2241 80.776C77.5574 80.776 78.9468 80.8146 80.3494 80.8546C78.9628 80.816 77.5894 80.7787 76.2694 80.7787C73.5534 80.7787 71.0721 80.9333 69.2001 81.5333ZM61.6788 75.2373C61.6841 75.232 61.6881 75.228 61.6934 75.224C61.6894 75.228 61.6828 75.232 61.6788 75.2373ZM82.0641 71.736C81.9201 71.66 81.7628 71.5867 81.6161 71.5093C81.6374 71.5187 81.6574 71.5266 81.6774 71.5346C81.8068 71.6013 81.9361 71.6693 82.0641 71.736Z" fill="url(#paint6_linear_119_2)"/>
</g>
<mask id="mask7_119_2" style="mask-type:luminance" maskUnits="userSpaceOnUse" x="60" y="71" width="36" height="11">
<path d="M69.1904 81.528L60.4478 76.552C60.7958 76.108 61.1864 75.6707 61.6691 75.2453C61.6704 75.244 61.6718 75.2427 61.6744 75.24C61.6758 75.2387 61.6771 75.2387 61.6784 75.2373C61.6824 75.232 61.6891 75.228 61.6931 75.224C61.7024 75.216 61.7104 75.208 61.7198 75.2C61.7304 75.1907 61.7411 75.1813 61.7531 75.172C61.7531 75.172 61.7558 75.1693 61.7571 75.1693C61.7744 75.1533 61.7931 75.1387 61.8104 75.1227C61.8131 75.1213 61.8158 75.1187 61.8171 75.1174C61.8251 75.1107 61.8331 75.104 61.8411 75.0974C65.3478 72.1627 70.8704 71.6187 76.4078 71.6187C76.4091 71.6187 76.4118 71.6187 76.4131 71.6187H76.4144C78.2718 71.6187 80.1291 71.68 81.9131 71.732C81.9238 71.732 81.9344 71.7334 81.9451 71.7334C81.9624 71.7334 81.9784 71.7347 81.9944 71.7347C82.0171 71.7347 82.0411 71.736 82.0638 71.736C81.9358 71.6693 81.8064 71.6013 81.6771 71.5347C85.5024 73.072 90.4731 75.328 95.9291 78.472C93.8691 80.544 89.7598 80.9507 85.2184 80.9507C83.7451 80.9507 82.2251 80.908 80.7144 80.8654C80.5931 80.8614 80.4718 80.8587 80.3491 80.8547C78.9464 80.8147 77.5571 80.776 76.2238 80.776C73.5211 80.776 71.0544 80.9307 69.1904 81.528Z" fill="white"/>
</mask>
<g mask="url(#mask7_119_2)">
<path d="M69.1904 81.528L60.4478 76.552C60.7958 76.108 61.1864 75.6707 61.6691 75.2453C61.6704 75.244 61.6718 75.2427 61.6744 75.24C61.6758 75.2387 61.6771 75.2387 61.6784 75.2373C61.6824 75.232 61.6891 75.228 61.6931 75.224C61.7024 75.216 61.7104 75.208 61.7198 75.2C61.7304 75.1907 61.7411 75.1813 61.7531 75.172C61.7531 75.172 61.7558 75.1693 61.7571 75.1693C61.7744 75.1533 61.7931 75.1387 61.8104 75.1227C61.8131 75.1213 61.8158 75.1187 61.8171 75.1174C61.8251 75.1107 61.8331 75.104 61.8411 75.0974C65.3478 72.1627 70.8704 71.6187 76.4078 71.6187C76.4091 71.6187 76.4118 71.6187 76.4131 71.6187H76.4144C78.2718 71.6187 80.1291 71.68 81.9131 71.732C81.9238 71.732 81.9344 71.7334 81.9451 71.7334C81.9624 71.7334 81.9784 71.7347 81.9944 71.7347C82.0171 71.7347 82.0411 71.736 82.0638 71.736C81.9358 71.6693 81.8064 71.6013 81.6771 71.5347C85.5024 73.072 90.4731 75.328 95.9291 78.472C93.8691 80.544 89.7598 80.9507 85.2184 80.9507C83.7451 80.9507 82.2251 80.908 80.7144 80.8654C80.5931 80.8614 80.4718 80.8587 80.3491 80.8547C78.9464 80.8147 77.5571 80.776 76.2238 80.776C73.5211 80.776 71.0544 80.9307 69.1904 81.528Z" fill="url(#paint7_linear_119_2)"/>
</g>
<mask id="mask8_119_2" style="mask-type:luminance" maskUnits="userSpaceOnUse" x="6" y="60" width="15" height="24">
<path d="M20.5091 83.2173C14.6571 72.4933 12.6958 64.244 19.2438 60.492L19.3065 60.472C12.7011 64.2107 14.6451 72.468 20.5105 83.2173H20.5091Z" fill="white"/>
</mask>
<g mask="url(#mask8_119_2)">
<path d="M20.5091 83.2173C14.6571 72.4933 12.6958 64.244 19.2438 60.492L19.3065 60.472C12.7011 64.2107 14.6451 72.468 20.5105 83.2173H20.5091Z" fill="url(#paint8_linear_119_2)"/>
</g>
<mask id="mask9_119_2" style="mask-type:luminance" maskUnits="userSpaceOnUse" x="6" y="60" width="15" height="27">
<path d="M11.816 86.1147C9.24938 81.028 7.41338 76.4267 6.73605 73.3293C6.72805 73.2907 6.71872 73.252 6.71072 73.2147C6.54805 72.4547 6.42405 71.7253 6.31738 71.0093C8.74138 66.8107 12.6934 62.8853 19.1041 60.5373L19.2441 60.492C12.6961 64.244 14.6574 72.4934 20.5094 83.2174L11.816 86.1147Z" fill="white"/>
</mask>
<g mask="url(#mask9_119_2)">
<path d="M11.816 86.1147C9.24938 81.028 7.41338 76.4267 6.73605 73.3293C6.72805 73.2907 6.71872 73.252 6.71072 73.2147C6.54805 72.4547 6.42405 71.7253 6.31738 71.0093C8.74138 66.8107 12.6934 62.8853 19.1041 60.5373L19.2441 60.492C12.6961 64.244 14.6574 72.4934 20.5094 83.2174L11.816 86.1147Z" fill="url(#paint9_linear_119_2)"/>
</g>
<path d="M15.348 162.089L13.728 159.749H13.632H11.94V162.089H9.996V153.689H13.632C14.376 153.689 15.02 153.813 15.564 154.061C16.116 154.309 16.54 154.661 16.836 155.117C17.132 155.573 17.28 156.113 17.28 156.737C17.28 157.361 17.128 157.901 16.824 158.357C16.528 158.805 16.104 159.149 15.552 159.389L17.436 162.089H15.348ZM15.312 156.737C15.312 156.265 15.16 155.905 14.856 155.657C14.552 155.401 14.108 155.273 13.524 155.273H11.94V158.201H13.524C14.108 158.201 14.552 158.073 14.856 157.817C15.16 157.561 15.312 157.201 15.312 156.737ZM34.6002 153.545C35.3762 153.545 36.0522 153.697 36.6282 154.001C37.2042 154.305 37.6522 154.753 37.9722 155.345C38.2922 155.937 38.4522 156.653 38.4522 157.493V162.089H36.5082V160.073H32.6682V162.089H30.7482V157.493C30.7482 156.653 30.9082 155.937 31.2282 155.345C31.5482 154.753 31.9962 154.305 32.5722 154.001C33.1482 153.697 33.8242 153.545 34.6002 153.545ZM36.5082 158.513V157.313C36.5082 156.617 36.3362 156.093 35.9922 155.741C35.6482 155.381 35.1802 155.201 34.5882 155.201C33.9882 155.201 33.5162 155.381 33.1722 155.741C32.8362 156.093 32.6682 156.617 32.6682 157.313V158.513H36.5082ZM60.2126 153.689L56.5766 162.089H54.6566L51.0326 153.689H53.1326L55.6886 159.689L58.2806 153.689H60.2126ZM75.9698 155.249V160.529H77.4218V162.089H72.5618V160.529H74.0258V155.249H72.5618V153.689H77.4218V155.249H75.9698ZM97.0585 157.721C97.5385 157.873 97.9145 158.129 98.1865 158.489C98.4585 158.841 98.5945 159.277 98.5945 159.797C98.5945 160.533 98.3065 161.101 97.7305 161.501C97.1625 161.893 96.3305 162.089 95.2345 162.089H90.8905V153.689H94.9945C96.0185 153.689 96.8025 153.885 97.3465 154.277C97.8985 154.669 98.1745 155.201 98.1745 155.873C98.1745 156.281 98.0745 156.645 97.8745 156.965C97.6825 157.285 97.4105 157.537 97.0585 157.721ZM92.8225 155.153V157.133H94.7545C95.2345 157.133 95.5985 157.049 95.8465 156.881C96.0945 156.713 96.2185 156.465 96.2185 156.137C96.2185 155.809 96.0945 155.565 95.8465 155.405C95.5985 155.237 95.2345 155.153 94.7545 155.153H92.8225ZM95.0905 160.625C95.6025 160.625 95.9865 160.541 96.2425 160.373C96.5065 160.205 96.6385 159.945 96.6385 159.593C96.6385 158.897 96.1225 158.549 95.0905 158.549H92.8225V160.625H95.0905ZM112.066 153.689H114.01V160.505H118.222V162.089H112.066V153.689ZM135.236 162.233C134.364 162.233 133.576 162.045 132.872 161.669C132.176 161.293 131.628 160.777 131.228 160.121C130.836 159.457 130.64 158.713 130.64 157.889C130.64 157.065 130.836 156.325 131.228 155.669C131.628 155.005 132.176 154.485 132.872 154.109C133.576 153.733 134.364 153.545 135.236 153.545C136.108 153.545 136.892 153.733 137.588 154.109C138.284 154.485 138.832 155.005 139.232 155.669C139.632 156.325 139.832 157.065 139.832 157.889C139.832 158.713 139.632 159.457 139.232 160.121C138.832 160.777 138.284 161.293 137.588 161.669C136.892 162.045 136.108 162.233 135.236 162.233ZM135.236 160.577C135.732 160.577 136.18 160.465 136.58 160.241C136.98 160.009 137.292 159.689 137.516 159.281C137.748 158.873 137.864 158.409 137.864 157.889C137.864 157.369 137.748 156.905 137.516 156.497C137.292 156.089 136.98 155.773 136.58 155.549C136.18 155.317 135.732 155.201 135.236 155.201C134.74 155.201 134.292 155.317 133.892 155.549C133.492 155.773 133.176 156.089 132.944 156.497C132.72 156.905 132.608 157.369 132.608 157.889C132.608 158.409 132.72 158.873 132.944 159.281C133.176 159.689 133.492 160.009 133.892 160.241C134.292 160.465 134.74 160.577 135.236 160.577ZM158.969 157.757H160.745V162.089H159.281V161.585C158.697 162.017 157.945 162.233 157.025 162.233C156.249 162.233 155.537 162.065 154.889 161.729C154.241 161.393 153.725 160.905 153.341 160.265C152.957 159.617 152.765 158.849 152.765 157.961C152.765 157.105 152.961 156.345 153.353 155.681C153.753 155.009 154.305 154.485 155.009 154.109C155.713 153.733 156.505 153.545 157.385 153.545C158.121 153.545 158.789 153.669 159.389 153.917C159.989 154.165 160.493 154.525 160.901 154.997L159.653 156.149C159.053 155.517 158.329 155.201 157.481 155.201C156.945 155.201 156.469 155.317 156.053 155.549C155.637 155.773 155.313 156.093 155.081 156.509C154.849 156.925 154.733 157.405 154.733 157.949C154.733 158.517 154.845 159.001 155.069 159.401C155.301 159.801 155.609 160.105 155.993 160.313C156.377 160.513 156.797 160.613 157.253 160.613C157.933 160.613 158.505 160.421 158.969 160.037V157.757Z" fill="black"/>
<defs>
<linearGradient id="paint0_linear_119_2" x1="42.9933" y1="64.452" x2="41.9308" y2="58.0562" gradientUnits="userSpaceOnUse">
<stop stop-color="white"/>
<stop offset="1" stop-color="#524F53"/>
</linearGradient>
<linearGradient id="paint1_linear_119_2" x1="42.9933" y1="64.452" x2="41.9308" y2="58.0561" gradientUnits="userSpaceOnUse">
<stop stop-color="#4AC5FF"/>
<stop offset="1" stop-color="#451517"/>
</linearGradient>
<linearGradient id="paint2_linear_119_2" x1="36.5026" y1="45.7" x2="37.7318" y2="51.6583" gradientUnits="userSpaceOnUse">
<stop stop-color="white"/>
<stop offset="1" stop-color="#211C1C"/>
</linearGradient>
<linearGradient id="paint3_linear_119_2" x1="36.5027" y1="45.7" x2="37.7319" y2="51.6583" gradientUnits="userSpaceOnUse">
<stop stop-color="#4AC5FF"/>
<stop offset="1" stop-color="#1E1312"/>
</linearGradient>
<linearGradient id="paint4_linear_119_2" x1="50.4331" y1="93.716" x2="29.8771" y2="117.049" gradientUnits="userSpaceOnUse">
<stop stop-color="white"/>
<stop offset="1" stop-color="#211C1C"/>
</linearGradient>
<linearGradient id="paint5_linear_119_2" x1="50.4331" y1="93.716" x2="29.8771" y2="117.049" gradientUnits="userSpaceOnUse">
<stop stop-color="#4AC5FF"/>
<stop offset="1" stop-color="#1E1312"/>
</linearGradient>
<linearGradient id="paint6_linear_119_2" x1="75.9654" y1="80.436" x2="89.7434" y2="62.3247" gradientUnits="userSpaceOnUse">
<stop stop-color="white"/>
<stop offset="1" stop-color="#211C1C"/>
</linearGradient>
<linearGradient id="paint7_linear_119_2" x1="75.9651" y1="80.436" x2="89.7431" y2="62.3247" gradientUnits="userSpaceOnUse">
<stop stop-color="#4AC5FF"/>
<stop offset="1" stop-color="#1E1312"/>
</linearGradient>
<linearGradient id="paint8_linear_119_2" x1="13.4798" y1="79.036" x2="12.3685" y2="46.258" gradientUnits="userSpaceOnUse">
<stop stop-color="white"/>
<stop offset="1" stop-color="#211C1C"/>
</linearGradient>
<linearGradient id="paint9_linear_119_2" x1="13.4801" y1="79.036" x2="12.3687" y2="46.258" gradientUnits="userSpaceOnUse">
<stop stop-color="#4AC5FF"/>
<stop offset="1" stop-color="#1E1312"/>
</linearGradient>
</defs>
</svg>
